<?xml version="1.0" encoding="UTF-8" standalone="no"?>
<svg
   xmlns:dc="http://purl.org/dc/elements/1.1/"
   xmlns:cc="http://creativecommons.org/ns#"
   xmlns:rdf="http://www.w3.org/1999/02/22-rdf-syntax-ns#"
   xmlns:svg="http://www.w3.org/2000/svg"
   xmlns="http://www.w3.org/2000/svg"
   xmlns:sodipodi="http://sodipodi.sourceforge.net/DTD/sodipodi-0.dtd"
   xmlns:inkscape="http://www.inkscape.org/namespaces/inkscape"
   style="overflow:visible"
   preserveAspectRatio="xMinYMin"
   width="134.99342"
   height="200"
   xml:space="preserve"
   enable-background="new 0 0 313.824 464.946"
   viewBox="5.1230001 7.5889978 303.578 449.767"
   y="187.50003"
   x="91.550018"
   id="Layer_1"
   version="1.1"
   sodipodi:docname="logo-only.svg"
   inkscape:version="0.92.3 (2405546, 2018-03-11)"><metadata
   id="metadata21"><rdf:RDF><cc:Work
       rdf:about=""><dc:format>image/svg+xml</dc:format><dc:type
         rdf:resource="http://purl.org/dc/dcmitype/StillImage" /><dc:title></dc:title></cc:Work></rdf:RDF></metadata><defs
   id="defs19" /><sodipodi:namedview
   pagecolor="#ffffff"
   bordercolor="#666666"
   borderopacity="1"
   objecttolerance="10"
   gridtolerance="10"
   guidetolerance="10"
   inkscape:pageopacity="0"
   inkscape:pageshadow="2"
   inkscape:window-width="1366"
   inkscape:window-height="713"
   id="namedview17"
   showgrid="false"
   inkscape:zoom="1.77"
   inkscape:cx="55.932194"
   inkscape:cy="108.8983"
   inkscape:window-x="0"
   inkscape:window-y="0"
   inkscape:window-maximized="1"
   inkscape:current-layer="Layer_1" />
   <rect
   style="opacity:1;fill:#1a1a1a;fill-opacity:1;fill-rule:nonzero;stroke:none;stroke-width:2.25237656;stroke-linejoin:miter;stroke-miterlimit:4;stroke-dasharray:none;stroke-opacity:1;paint-order:normal"
   id="rect850"
   width="539.33929"
   height="667.0274"
   x="-666.03363"
   y="-115.96989"
   ry="17.278408" /><path
   style="fill:#ffffff;fill-opacity:1;stroke-width:0.44467464;stroke:#ffffff;stroke-opacity:1"
   d="M 43.001953 0 C 41.862603 0 41.029425 0.46796279 40.486328 1.1503906 C 39.973977 1.6863882 39.631839 2.4192297 39.625 3.375 C 39.568526 11.517437 43.584198 20.427113 51.080078 24.160156 C 52.068274 24.652197 53.086794 25.055359 54.123047 25.373047 L 54.123047 32.984375 L 55.521484 32.984375 L 55.521484 62.488281 C 57.27706 61.653627 58.945975 60.868757 60.486328 60.078125 L 60.498047 60.072266 C 61.572825 59.528873 62.593284 58.980465 63.564453 58.427734 L 63.564453 32.984375 L 65.138672 32.984375 L 65.138672 25.308594 C 66.397373 24.885787 67.621822 24.320586 68.787109 23.585938 C 75.337611 19.454021 78.162097 11.596784 79.177734 4.2734375 C 79.473443 2.1425566 78.334409 -1.1842379e-15 75.923828 0 L 43.001953 0 z M 46.716797 6.75 L 71.873047 6.75 C 71.424131 8.6550006 70.833238 10.523819 69.958984 12.275391 C 69.35734 13.489352 68.598731 14.655221 67.9375 15.441406 C 67.563084 15.882079 67.154052 16.291914 66.738281 16.689453 C 66.546905 16.869924 66.345328 17.036799 66.144531 17.205078 C 66.117057 17.215221 65.664428 17.565832 65.640625 17.582031 C 65.21685 17.876851 64.766243 18.13451 64.314453 18.380859 C 64.047204 18.525379 63.77303 18.651946 63.5 18.777344 C 64.18302 18.463848 63.297745 18.842539 63.207031 18.875 C 62.753018 19.039974 62.285093 19.165809 61.816406 19.283203 C 61.540708 19.351238 61.258042 19.404115 60.976562 19.457031 C 60.877846 19.475596 60.898468 19.474322 60.851562 19.484375 C 60.807346 19.488618 60.831357 19.484028 60.757812 19.492188 C 58.341895 19.760771 55.671058 18.967673 53.865234 18.015625 C 52.047404 17.057351 50.498095 15.499951 49.5625 14.115234 C 48.970638 13.237891 48.47902 12.297769 48.041016 11.335938 C 47.944071 11.097161 47.855359 10.85621 47.767578 10.615234 C 47.586151 10.124314 47.429946 9.6248143 47.283203 9.125 C 47.05518 8.3447013 46.870531 7.5487813 46.716797 6.75 z "
   transform="matrix(2.2488352,0,0,2.2488352,5.1230001,7.5889978)"
   id="path4" />

   <path
   style="fill:#ffffff;fill-opacity:1;stroke-width:0.44467464;stroke:#ffffff;stroke-opacity:1"
   d="M 63.564453 69.023438 C 62.887665 69.391546 62.204801 69.751719 61.515625 70.09375 L 61.509766 70.095703 C 59.10854 71.291572 57.136102 72.361485 55.521484 73.330078 L 55.521484 139.06055 L 53.179688 139.06055 L 53.179688 144.83594 L 53.179688 145.5293 L 53.179688 149.17578 L 51.304688 144.83594 L 44.179688 144.83594 L 41.589844 144.83594 L 33.412109 144.83594 L 33.412109 170.75195 L 33.445312 171.00977 C 33.79038 173.53329 34.452369 175.8869 35.335938 178.05469 C 36.886517 181.85666 39.105837 185.08333 41.519531 187.77539 C 45.14941 191.81793 49.211376 194.69 52.392578 196.59766 C 55.574214 198.50175 57.871562 199.42903 58.023438 199.49023 L 59.296875 200 L 60.607422 199.58594 C 60.737267 199.54414 62.164643 199.08812 64.306641 198.09961 C 65.91325 197.35611 67.918802 196.31725 70.068359 194.92188 C 73.289582 192.82701 76.854524 189.93485 79.8125 185.99414 C 81.289264 184.0229 82.607933 181.79152 83.628906 179.28711 C 84.649879 176.78315 85.369609 174.00399 85.658203 170.98242 L 85.673828 170.80469 L 85.673828 144.83594 L 72.984375 144.83594 L 68.589844 144.83594 L 67.757812 144.83594 L 65.882812 149.17578 L 65.882812 145.5293 L 65.882812 144.83594 L 65.882812 139.06055 L 63.564453 139.06055 L 63.564453 69.023438 z M 41.109375 152.53516 L 48.148438 152.53516 L 49.804688 152.53516 L 64.955078 152.53516 L 67.568359 152.53516 L 68.310547 152.53516 L 71.910156 152.53516 L 77.976562 152.53516 L 77.976562 170.35352 L 77.976562 170.38477 L 77.972656 170.41992 C 77.773442 172.36182 77.345881 174.13226 76.740234 175.75977 C 75.655673 178.68083 73.999486 181.16682 72.072266 183.28125 C 69.185438 186.45178 65.684037 188.74477 62.910156 190.20508 C 61.712203 190.83741 60.656947 191.31627 59.857422 191.64844 L 59.59375 191.75781 L 59.339844 191.63281 C 58.92096 191.42559 58.436685 191.17373 57.890625 190.87891 C 56.568163 190.15631 54.917475 189.16458 53.179688 187.91016 C 50.570337 186.02918 47.777808 183.55837 45.546875 180.55859 C 44.429852 179.05871 43.450038 177.42817 42.681641 175.66992 C 41.948817 173.98772 41.404718 172.18808 41.115234 170.24219 L 41.109375 170.19336 L 41.109375 152.53516 z "
   transform="matrix(2.2488352,0,0,2.2488352,5.1230001,7.5889978)"
   id="path8" />

   <path
   id="path12"
   style="fill:#8dc63f;stroke:#8dc63f;stroke-opacity:1"
   d="m 252.917,101.365 c -26.656,43.348 -64.522,19.84 -64.522,19.84 27.183,2.564 36.018,-12.506 36.018,-12.506 -12.194,-8.661 -37.88,5.417 -37.88,5.417 28.364,-40.392 66.384,-12.751 66.384,-12.751 z" />
   <path
   id="path14"
   style="fill:#8dc63f;fill-opacity:1;stroke:#8dc63f;stroke-opacity:1"
   d="m 192.895,53.24 c 19.277,32.417 -9.194,49.177 -9.194,49.177 11.045,-16.954 4.201,-27.941 4.201,-27.941 -9.881,5.021 -9.491,26.728 -9.491,26.728 -16.74,-32.521 14.484,-47.964 14.484,-47.964 z" />
   <path
   id="path16"
   style="fill:#8dc63f;stroke:#8dc63f;stroke-opacity:1;stroke-width:1.00073168;stroke-miterlimit:4;stroke-dasharray:none"
   d="m 308.701,331.915 c -33.994,-79.43 -103.442,-49.364 -103.442,-49.364 46.286,2.454 57.386,29.955 57.386,29.955 -22.628,11.514 -62.283,-18.509 -62.283,-18.509 37.603,74.889 108.339,37.918 108.339,37.918 z" />
   <path
   id="path18"
   style="fill:#8dc63f;stroke:#8dc63f;stroke-opacity:1"
   d="m 255.158,180.541 c -58.99,-10.338 -67.831,41.369 -67.831,41.369 18.956,-25.942 39.124,-21.976 39.124,-21.976 -1.879,17.5 -34.329,29.156 -34.329,29.156 57.722,6.522 63.036,-48.549 63.036,-48.549 z" />
   <path
   id="path20"
   style="fill:#8dc63f;stroke:#8dc63f;stroke-opacity:1"
   d="M 5.123,268.189 C 35.992,196.055 99.066,223.357 99.066,223.357 57.028,225.586 46.947,250.56 46.947,250.56 67.496,261.022 103.509,233.752 103.509,233.752 69.36,301.769 5.123,268.189 5.123,268.189 Z" />
   <path
   id="path22"
   style="fill:#8dc63f;stroke:#8dc63f;stroke-opacity:1"
   d="m 46.379,115.183 c 55.164,-9.665 63.428,38.685 63.428,38.685 -17.724,-24.257 -36.583,-20.551 -36.583,-20.551 1.756,16.363 32.099,27.264 32.099,27.264 -53.976,6.098 -58.944,-45.398 -58.944,-45.398 z" />
   <path
   id="path24"
   style="fill:#ffffff;fill-opacity:1;stroke:#ffffff;stroke-opacity:1"
   d="m 124.715,208.552 c -2.946,-1.015 -5.773,-2.142 -8.475,-3.484 -0.367,-0.206 -0.723,-0.415 -1.072,-0.631 -4.834,-3.027 -7.745,-7.283 -7.163,-13.922 1.35,-9.97 6.053,-16.928 32.951,-30.325 22.845,-11.319 42.559,-29.127 39.61,-53.734 -0.356,1.77 -0.356,1.77 -0.635,3.138 -0.573,2.727 -1.657,6.721 -4.095,11.269 -2.417,4.541 -6.304,9.522 -11.795,14.07 -5.457,4.6 -12.417,8.757 -20.334,12.761 -7.911,4.052 -16.828,7.849 -26.113,12.915 -4.625,2.566 -9.374,5.477 -13.829,9.418 -2.214,1.979 -4.361,4.211 -6.205,6.841 -1.842,2.621 -3.403,5.611 -4.408,8.848 -0.48,1.618 -0.893,3.279 -1.107,4.958 -0.137,0.818 -0.211,1.722 -0.261,2.64 -0.08,1.008 -0.062,1.562 -0.084,2.315 l -0.004,0.268 -0.004,0.135 0.029,0.483 0.055,0.698 c 0.049,0.463 0.062,0.93 0.149,1.396 0.133,0.932 0.31,1.862 0.565,2.782 0.495,1.833 1.199,3.631 2.103,5.296 1.809,3.326 4.273,6.139 6.955,8.431 2.688,2.308 5.595,4.154 8.58,5.708 3.018,1.944 8.243,3.645 14.588,5.531 v -17.805 z" />

   <path
   id="path28"
   style="fill:#ffffff;fill-opacity:1;stroke:#ffffff;stroke-opacity:1"
   d="m 199.046,250.444 c -3.295,-7.46 -8.414,-12.955 -13.754,-17.355 -5.387,-4.41 -11.196,-7.749 -17.129,-10.534 -4.592,-2.133 -9.285,-3.892 -14.021,-5.374 -0.292,-0.097 -0.57,-0.177 -0.861,-0.272 v 18.913 c 2.208,0.928 4.396,1.915 6.527,2.988 27.334,16.061 18.596,31.924 0.093,43.213 -1.785,0.927 -3.423,1.805 -4.992,2.655 v 29.597 c 5.544,-2.893 11.611,-6.086 17.965,-10.13 1.21,-0.776 2.426,-1.585 3.643,-2.434 l 1.825,-1.3 1.552,-1.163 1.673,-1.233 c 0.67,-0.512 1.369,-1.035 2.011,-1.549 1.249,-1.007 2.49,-2.067 3.715,-3.196 2.443,-2.266 4.829,-4.821 7.018,-7.783 2.18,-2.949 4.143,-6.379 5.549,-10.249 1.399,-3.862 2.188,-8.211 2.009,-12.542 -0.132,-4.335 -1.219,-8.534 -2.823,-12.252 z m -2.692,12.595 c -0.043,1.481 -0.275,3.077 -0.572,4.758 -0.392,1.656 -0.711,3.452 -1.421,5.188 -0.576,1.784 -1.365,3.555 -2.275,5.303 -0.878,1.763 -2.063,3.386 -3.102,5.095 -1.289,1.523 -2.505,3.119 -3.853,4.532 -1.397,1.367 -2.797,2.696 -4.23,3.862 -1.466,1.128 -2.938,2.146 -4.319,3.11 -1.43,0.89 -2.864,1.602 -4.154,2.285 -0.646,0.335 -1.265,0.657 -1.858,0.963 -0.605,0.272 -1.209,0.471 -1.761,0.691 -1.105,0.428 -2.085,0.756 -2.885,1.034 -1.608,0.541 -2.529,0.807 -2.529,0.807 0,0 0.758,-0.627 2.1,-1.642 0.672,-0.503 1.478,-1.122 2.425,-1.776 0.96,-0.635 1.961,-1.466 3.047,-2.369 1.085,-0.874 2.265,-1.826 3.514,-2.833 1.16,-1.099 2.36,-2.26 3.658,-3.387 1.256,-1.175 2.343,-2.588 3.629,-3.837 1.197,-1.327 2.24,-2.816 3.388,-4.218 0.969,-1.52 2.1,-2.952 2.932,-4.522 0.411,-0.789 0.847,-1.557 1.295,-2.311 0.455,-0.75 0.743,-1.566 1.12,-2.331 0.748,-1.532 1.299,-3.084 1.874,-4.553 0.46,-1.497 0.985,-2.915 1.306,-4.261 1.416,-5.379 1.619,-9.281 1.619,-9.281 0,0 0.34,0.911 0.659,2.597 0.128,0.839 0.323,1.873 0.373,3.066 0.029,0.6 0.063,1.238 0.099,1.91 -0.024,0.674 -0.05,1.381 -0.079,2.12 z" />

</svg>
