<?xml version="1.0" standalone="no"?>
<!DOCTYPE svg PUBLIC "-//W3C//DTD SVG 20010904//EN"
 "http://www.w3.org/TR/2001/REC-SVG-20010904/DTD/svg10.dtd">
<svg version="1.0" xmlns="http://www.w3.org/2000/svg"
 width="160.000000pt" height="160.000000pt" viewBox="0 0 160.000000 160.000000"
 preserveAspectRatio="xMidYMid meet">
<metadata>
Created by potrace 1.14, written by Peter Selinger 2001-2017
</metadata>
<g transform="translate(0.000000,160.000000) scale(0.100000,-0.100000)"
fill="#000000" stroke="none">
<path d="M0 800 l0 -800 800 0 800 0 0 800 0 800 -800 0 -800 0 0 -800z m887
724 c11 -28 -18 -98 -58 -137 -23 -23 -39 -49 -39 -63 0 -12 -4 -26 -10 -29
-6 -3 -10 -48 -10 -99 0 -89 -1 -93 -25 -104 l-25 -12 0 98 c0 142 -6 168 -46
192 -49 31 -93 137 -67 163 3 4 66 7 140 7 112 0 135 -3 140 -16z m42 -147
c-2 -1 -15 -11 -29 -22 l-25 -20 19 23 c11 12 24 22 29 22 6 0 8 -1 6 -3z m31
-151 c0 -2 -7 -7 -16 -10 -8 -3 -12 -2 -9 4 6 10 25 14 25 6z m-107 -104 c-16
-20 -61 -56 -99 -79 -114 -69 -142 -118 -84 -151 19 -11 30 -25 30 -39 0 -35
-36 -29 -76 11 -66 66 -35 125 99 195 49 25 103 62 120 81 41 45 49 30 10 -18z
m-228 -13 c11 -17 -1 -21 -15 -4 -8 9 -8 15 -2 15 6 0 14 -5 17 -11z m145
-344 c0 -163 4 -255 10 -255 6 0 10 -17 10 -37 1 -32 3 -35 13 -23 8 11 30 15
72 14 l60 -1 3 -94 c2 -52 -2 -113 -9 -137 -15 -55 -74 -121 -134 -151 l-48
-24 -44 23 c-57 30 -126 107 -141 158 -7 21 -12 80 -12 130 l0 90 66 4 c51 2
68 0 75 -12 6 -11 8 -4 9 23 0 20 5 37 10 37 6 0 10 88 10 245 0 222 2 245 18
254 9 6 20 11 25 11 4 0 7 -115 7 -255z m230 181 c0 -2 -12 -11 -27 -20 l-28
-17 24 20 c23 21 31 25 31 17z m-60 -66 c-6 -11 -13 -20 -16 -20 -2 0 0 9 6
20 6 11 13 20 16 20 2 0 0 -9 -6 -20z m-21 -103 c14 -16 25 -42 28 -69 6 -55
-22 -99 -94 -145 l-53 -34 0 46 c0 40 5 50 35 76 25 22 35 40 35 60 0 20 -9
35 -35 55 -26 19 -35 34 -35 55 l0 29 48 -24 c26 -13 58 -35 71 -49z m-346 56
c-7 -2 -19 -2 -25 0 -7 3 -2 5 12 5 14 0 19 -2 13 -5z m-173 -37 c0 -2 -8 -10
-17 -17 -16 -13 -17 -12 -4 4 13 16 21 21 21 13z m192 -48 c-7 -7 -12 -8 -12
-2 0 14 12 26 19 19 2 -3 -1 -11 -7 -17z m402 -194 c5 -14 4 -15 -9 -4 -17 14
-19 20 -6 20 5 0 12 -7 15 -16z m267 -11 c13 -16 12 -17 -3 -4 -10 7 -18 15
-18 17 0 8 8 3 21 -13z"/>
<path d="M650 1485 c0 -17 33 -66 49 -75 47 -24 102 -7 126 40 8 16 15 31 15
35 0 3 -43 5 -95 5 -52 0 -95 -2 -95 -5z"/>
<path d="M610 334 c0 -50 6 -88 16 -111 18 -36 96 -103 122 -103 22 0 98 60
118 95 14 22 18 51 19 110 l0 80 -137 3 -138 3 0 -77z"/>
<path d="M928 714 c-5 -4 -8 -16 -8 -26 0 -10 -19 -39 -41 -63 -23 -25 -37
-45 -31 -45 19 0 69 49 82 79 12 30 11 69 -2 55z"/>
</g>
</svg>
