<svg xmlns="http://www.w3.org/2000/svg" preserveAspectRatio="xMinYMin" xml:space="preserve" viewBox="5.123 7.589 303.578 449.767" y="187.5" x="91.55" overflow="visible"><rect width="539.339" height="667.027" x="-666.034" y="-115.97" ry="17.278" fill="#1a1a1a"/><path d="M101.827 7.589c-2.562 0-4.436 1.052-5.657 2.587-1.152 1.205-1.922 2.853-1.937 5.003-.127 18.31 8.904 38.347 25.76 46.742a44.824 44.824 0 0 0 6.844 2.728v17.116h3.145v66.35c3.948-1.877 7.7-3.642 11.165-5.42l.026-.013a158.643 158.643 0 0 0 6.896-3.699V81.765h3.54V64.504a38.044 38.044 0 0 0 8.205-3.874c14.73-9.292 21.083-26.962 23.367-43.43.665-4.793-1.897-9.611-7.318-9.611h-74.036zm8.354 15.18h56.573c-1.01 4.284-2.339 8.486-4.305 12.425-1.353 2.73-3.059 5.352-4.546 7.12-.842.991-1.762 1.913-2.697 2.807-.43.406-.883.781-1.335 1.16-.062.022-1.08.81-1.133.847-.953.663-1.966 1.243-2.982 1.797-.601.325-1.218.61-1.832.891 1.536-.705-.455.147-.659.22-1.02.37-2.073.654-3.127.918-.62.153-1.256.272-1.889.39-.222.042-.175.04-.28.062-.1.01-.046 0-.212.018-5.433.604-11.439-1.18-15.5-3.32-4.088-2.156-7.572-5.658-9.676-8.772-1.331-1.973-2.437-4.087-3.422-6.25a47.65 47.65 0 0 1-.615-1.621 51.523 51.523 0 0 1-1.089-3.351 58.41 58.41 0 0 1-1.274-5.341zM148.069 162.811a138.85 138.85 0 0 1-4.607 2.407l-.014.005c-5.4 2.689-9.835 5.095-13.466 7.273v147.817h-5.267V343.061l-4.216-9.76H80.262v58.281l.074.58a65.367 65.367 0 0 0 4.252 15.843c3.487 8.55 8.478 15.806 13.906 21.86 8.163 9.09 17.297 15.55 24.451 19.84 7.155 4.282 12.322 6.367 12.663 6.505l2.864 1.146 2.947-.931c.292-.094 3.502-1.12 8.319-3.343a104.447 104.447 0 0 0 12.957-7.146c7.244-4.71 15.261-11.215 21.913-20.077 3.321-4.433 6.287-9.45 8.583-15.083 2.296-5.63 3.914-11.88 4.563-18.676l.035-.4v-58.399H157.5l-4.217 9.76V320.313h-5.214V162.811zM97.571 350.615h82.908v40.141l-.008.08c-.448 4.366-1.41 8.348-2.772 12.008-2.439 6.569-6.163 12.16-10.497 16.914-6.492 7.13-14.366 12.287-20.604 15.57a83.63 83.63 0 0 1-6.866 3.247l-.592.246-.571-.281a104.652 104.652 0 0 1-3.26-1.696 101.072 101.072 0 0 1-10.594-6.676c-5.868-4.23-12.148-9.786-17.165-16.532-2.512-3.373-4.715-7.04-6.443-10.994a48.131 48.131 0 0 1-3.523-12.206l-.013-.11v-39.71z" fill="#fff" stroke-width="1.0007338" stroke="#fff"/><path d="M252.917 101.365c-26.656 43.348-64.522 19.84-64.522 19.84 27.183 2.564 36.018-12.506 36.018-12.506-12.194-8.661-37.88 5.417-37.88 5.417 28.364-40.392 66.384-12.751 66.384-12.751zM192.895 53.24c19.277 32.417-9.194 49.177-9.194 49.177 11.045-16.954 4.201-27.941 4.201-27.941-9.881 5.021-9.491 26.728-9.491 26.728-16.74-32.521 14.484-47.964 14.484-47.964z" fill="#8dc63f" stroke="#8dc63f"/><path d="M308.701 331.915c-33.994-79.43-103.442-49.364-103.442-49.364 46.286 2.454 57.386 29.955 57.386 29.955-22.628 11.514-62.283-18.509-62.283-18.509 37.603 74.889 108.339 37.918 108.339 37.918z" fill="#8dc63f" stroke="#8dc63f" stroke-width="1.001"/><path d="M255.158 180.541c-58.99-10.338-67.831 41.369-67.831 41.369 18.956-25.942 39.124-21.976 39.124-21.976-1.879 17.5-34.329 29.156-34.329 29.156 57.722 6.522 63.036-48.549 63.036-48.549zM5.123 268.189c30.869-72.134 93.943-44.832 93.943-44.832-42.038 2.229-52.119 27.203-52.119 27.203 20.549 10.462 56.562-16.808 56.562-16.808-34.149 68.017-98.386 34.437-98.386 34.437ZM46.379 115.183c55.164-9.665 63.428 38.685 63.428 38.685-17.724-24.257-36.583-20.551-36.583-20.551 1.756 16.363 32.099 27.264 32.099 27.264-53.976 6.098-58.944-45.398-58.944-45.398z" fill="#8dc63f" stroke="#8dc63f"/><path d="M124.715 208.552c-2.946-1.015-5.773-2.142-8.475-3.484a29.062 29.062 0 0 1-1.072-.631c-4.834-3.027-7.745-7.283-7.163-13.922 1.35-9.97 6.053-16.928 32.951-30.325 22.845-11.319 42.559-29.127 39.61-53.734-.356 1.77-.356 1.77-.635 3.138a41.68 41.68 0 0 1-4.095 11.269c-2.417 4.541-6.304 9.522-11.795 14.07-5.457 4.6-12.417 8.757-20.334 12.761-7.911 4.052-16.828 7.849-26.113 12.915-4.625 2.566-9.374 5.477-13.829 9.418-2.214 1.979-4.361 4.211-6.205 6.841-1.842 2.621-3.403 5.611-4.408 8.848-.48 1.618-.893 3.279-1.107 4.958-.137.818-.211 1.722-.261 2.64-.08 1.008-.062 1.562-.084 2.315l-.004.268-.004.135.029.483.055.698c.049.463.062.93.149 1.396.133.932.31 1.862.565 2.782a24.563 24.563 0 0 0 2.103 5.296c1.809 3.326 4.273 6.139 6.955 8.431 2.688 2.308 5.595 4.154 8.58 5.708 3.018 1.944 8.243 3.645 14.588 5.531v-17.805zM199.046 250.444c-3.295-7.46-8.414-12.955-13.754-17.355-5.387-4.41-11.196-7.749-17.129-10.534-4.592-2.133-9.285-3.892-14.021-5.374-.292-.097-.57-.177-.861-.272v18.913c2.208.928 4.396 1.915 6.527 2.988 27.334 16.061 18.596 31.924.093 43.213a318.352 318.352 0 0 0-4.992 2.655v29.597c5.544-2.893 11.611-6.086 17.965-10.13 1.21-.776 2.426-1.585 3.643-2.434l1.825-1.3 1.552-1.163 1.673-1.233c.67-.512 1.369-1.035 2.011-1.549a74.042 74.042 0 0 0 3.715-3.196c2.443-2.266 4.829-4.821 7.018-7.783 2.18-2.949 4.143-6.379 5.549-10.249 1.399-3.862 2.188-8.211 2.009-12.542-.132-4.335-1.219-8.534-2.823-12.252zm-2.692 12.595c-.043 1.481-.275 3.077-.572 4.758-.392 1.656-.711 3.452-1.421 5.188-.576 1.784-1.365 3.555-2.275 5.303-.878 1.763-2.063 3.386-3.102 5.095-1.289 1.523-2.505 3.119-3.853 4.532-1.397 1.367-2.797 2.696-4.23 3.862-1.466 1.128-2.938 2.146-4.319 3.11-1.43.89-2.864 1.602-4.154 2.285-.646.335-1.265.657-1.858.963-.605.272-1.209.471-1.761.691-1.105.428-2.085.756-2.885 1.034-1.608.541-2.529.807-2.529.807s.758-.627 2.1-1.642c.672-.503 1.478-1.122 2.425-1.776.96-.635 1.961-1.466 3.047-2.369l3.514-2.833c1.16-1.099 2.36-2.26 3.658-3.387 1.256-1.175 2.343-2.588 3.629-3.837 1.197-1.327 2.24-2.816 3.388-4.218.969-1.52 2.1-2.952 2.932-4.522.411-.789.847-1.557 1.295-2.311.455-.75.743-1.566 1.12-2.331.748-1.532 1.299-3.084 1.874-4.553.46-1.497.985-2.915 1.306-4.261 1.416-5.379 1.619-9.281 1.619-9.281s.34.911.659 2.597c.128.839.323 1.873.373 3.066.029.6.063 1.238.099 1.91-.024.674-.05 1.381-.079 2.12z" fill="#fff" stroke="#fff"/></svg>
