<?xml version="1.0" encoding="UTF-8" standalone="no"?>
<svg
   xmlns:dc="http://purl.org/dc/elements/1.1/"
   xmlns:cc="http://creativecommons.org/ns#"
   xmlns:rdf="http://www.w3.org/1999/02/22-rdf-syntax-ns#"
   xmlns:svg="http://www.w3.org/2000/svg"
   xmlns="http://www.w3.org/2000/svg"
   id="svg887"
   version="1.1"
   viewBox="0 0 315.07999 47.149998">
  <defs
     id="defs881" />
  <metadata
     id="metadata884">
    <rdf:RDF>
      <cc:Work
         rdf:about="">
        <dc:format>image/svg+xml</dc:format>
        <dc:type
           rdf:resource="http://purl.org/dc/dcmitype/StillImage" />
        <dc:title></dc:title>
      </cc:Work>
    </rdf:RDF>
  </metadata>
  <g
     transform="translate(-223.50002,-262.13004)"
     id="layer1">
    <svg
       id="svg37"
       version="1.1"
       style="overflow:visible"
       width="315.07999"
       height="16.650002"
       x="223.50002"
       viewBox="0.85000002 7.8000002 315.07999 16.650002"
       y="292.63004">
      <g
         id="g35"
         style="fill:#ffffff;fill-opacity:1">
        <path
           id="path33"
           d="m 16.45,12.76 h -3.16 q -0.62,-1.19 -1.72,-1.8 -1.11,-0.61 -2.55,-0.61 v 0 q -1.59,0 -2.83,0.71 -1.24,0.72 -1.95,2.03 -0.7,1.31 -0.7,3.03 v 0 q 0,1.73 0.7,3.05 0.71,1.32 1.95,2.04 1.24,0.71 2.83,0.71 v 0 q 2.13,0 3.47,-1.2 1.33,-1.19 1.63,-3.24 v 0 h -6 v -2.09 h 8.81 v 2.04 q -0.25,1.87 -1.32,3.43 -1.07,1.56 -2.79,2.5 -1.71,0.93 -3.8,0.93 v 0 Q 6.76,24.29 4.9,23.24 3.04,22.2 1.94,20.33 0.85,18.47 0.85,16.12 v 0 q 0,-2.34 1.09,-4.21 Q 3.04,10.05 4.91,9 6.79,7.96 9.02,7.96 v 0 q 2.55,0 4.54,1.25 1.99,1.25 2.89,3.55 z M 30.29,24.15 29.14,20.88 H 22.45 L 21.3,24.15 H 18.56 L 24.29,8.14 h 3.03 l 5.73,16.01 z m -7.11,-5.41 h 5.23 l -2.6,-7.42 z m 23.79,5.41 h -3.13 l -3.68,-6.39 h -2 v 6.39 H 35.54 V 8.16 h 5.51 q 1.85,0 3.12,0.65 1.28,0.64 1.91,1.72 0.63,1.08 0.63,2.42 v 0 q 0,1.56 -0.91,2.84 -0.9,1.28 -2.79,1.74 v 0 z M 38.16,10.3 v 5.36 h 2.89 q 1.48,0 2.22,-0.73 0.75,-0.74 0.75,-1.98 v 0 q 0,-1.24 -0.73,-1.94 -0.74,-0.71 -2.24,-0.71 v 0 z M 55.29,8.16 q 2.56,0 4.48,0.98 1.92,0.98 2.96,2.81 1.05,1.83 1.05,4.26 v 0 q 0,2.44 -1.05,4.24 -1.04,1.79 -2.96,2.75 -1.92,0.95 -4.48,0.95 v 0 H 50.07 V 8.16 Z m 0,13.85 q 2.81,0 4.3,-1.52 1.5,-1.52 1.5,-4.28 v 0 q 0,-2.78 -1.5,-4.34 -1.49,-1.57 -4.3,-1.57 v 0 h -2.6 V 22.01 Z M 75.21,10.28 H 69 v 4.69 h 5.52 v 2.14 H 69 v 4.9 h 6.21 v 2.14 H 66.38 V 8.14 h 8.83 z M 91.56,8.14 V 24.15 H 88.94 L 81.05,12.21 V 24.15 H 78.43 V 8.14 h 2.62 l 7.89,11.92 V 8.14 Z m 14.7,16.17 q -1.61,0 -2.9,-0.56 -1.29,-0.57 -2.02,-1.6 -0.74,-1.04 -0.74,-2.42 v 0 h 2.81 q 0.09,1.04 0.81,1.71 0.73,0.66 2.04,0.66 v 0 q 1.36,0 2.12,-0.65 0.76,-0.66 0.76,-1.69 v 0 q 0,-0.81 -0.48,-1.31 -0.47,-0.51 -1.17,-0.79 -0.7,-0.27 -1.94,-0.59 v 0 q -1.57,-0.42 -2.54,-0.84 -0.98,-0.43 -1.67,-1.33 -0.69,-0.89 -0.69,-2.39 v 0 q 0,-1.38 0.69,-2.41 0.69,-1.04 1.93,-1.59 1.24,-0.55 2.88,-0.55 v 0 q 2.32,0 3.8,1.16 1.49,1.16 1.65,3.18 v 0 h -2.9 q -0.07,-0.87 -0.83,-1.49 -0.76,-0.62 -2,-0.62 v 0 q -1.13,0 -1.84,0.57 -0.71,0.58 -0.71,1.66 v 0 q 0,0.74 0.44,1.21 0.45,0.47 1.14,0.74 0.69,0.28 1.89,0.6 v 0 q 1.59,0.44 2.59,0.88 1,0.43 1.7,1.34 0.7,0.91 0.7,2.43 v 0 q 0,1.22 -0.66,2.3 -0.65,1.08 -1.9,1.74 -1.26,0.65 -2.96,0.65 z m 17.46,-14.03 h -6.21 v 4.69 h 5.52 v 2.14 h -5.52 v 4.9 h 6.21 v 2.14 h -8.83 V 8.14 h 8.83 z m 14.65,13.87 h -3.13 l -3.68,-6.39 h -2 v 6.39 h -2.62 V 8.16 h 5.52 q 1.84,0 3.11,0.65 1.28,0.64 1.91,1.72 0.64,1.08 0.64,2.42 v 0 q 0,1.56 -0.91,2.84 -0.91,1.28 -2.8,1.74 v 0 z M 129.56,10.3 v 5.36 h 2.9 q 1.47,0 2.22,-0.73 0.74,-0.74 0.74,-1.98 v 0 q 0,-1.24 -0.73,-1.94 -0.74,-0.71 -2.23,-0.71 v 0 z m 22.93,-2.14 h 2.76 l -6,15.99 h -3.04 L 140.19,8.16 h 2.8 l 4.74,13.3 z m 4.95,0 h 2.62 v 15.99 h -2.62 z m 5.19,7.96 q 0,-2.34 1.1,-4.21 1.09,-1.86 2.96,-2.91 1.88,-1.04 4.11,-1.04 v 0 q 2.55,0 4.54,1.25 1.99,1.25 2.89,3.55 v 0 h -3.15 q -0.62,-1.26 -1.73,-1.88 -1.1,-0.62 -2.55,-0.62 v 0 q -1.59,0 -2.83,0.71 -1.24,0.71 -1.94,2.05 -0.71,1.33 -0.71,3.1 v 0 q 0,1.77 0.71,3.11 0.7,1.33 1.94,2.06 1.24,0.72 2.83,0.72 v 0 q 1.45,0 2.55,-0.62 1.11,-0.62 1.73,-1.89 v 0 h 3.15 q -0.9,2.3 -2.89,3.55 -1.99,1.24 -4.54,1.24 v 0 q -2.26,0 -4.12,-1.05 -1.86,-1.04 -2.95,-2.91 -1.1,-1.86 -1.1,-4.21 z m 27.49,-5.84 h -6.21 v 4.69 h 5.52 v 2.14 h -5.52 v 4.9 h 6.21 v 2.14 h -8.83 V 8.14 h 8.83 z m 8.48,14.03 q -1.6,0 -2.89,-0.56 -1.29,-0.57 -2.03,-1.6 -0.73,-1.04 -0.73,-2.42 v 0 h 2.8 q 0.09,1.04 0.82,1.71 0.72,0.66 2.03,0.66 v 0 q 1.36,0 2.12,-0.65 0.76,-0.66 0.76,-1.69 v 0 q 0,-0.81 -0.47,-1.31 -0.47,-0.51 -1.17,-0.79 -0.71,-0.27 -1.95,-0.59 v 0 q -1.56,-0.42 -2.54,-0.84 -0.98,-0.43 -1.67,-1.33 -0.69,-0.89 -0.69,-2.39 v 0 q 0,-1.38 0.69,-2.41 0.69,-1.04 1.94,-1.59 1.24,-0.55 2.87,-0.55 v 0 q 2.32,0 3.81,1.16 1.48,1.16 1.64,3.18 v 0 h -2.9 q -0.07,-0.87 -0.82,-1.49 -0.76,-0.62 -2.01,-0.62 v 0 q -1.12,0 -1.84,0.57 -0.71,0.58 -0.71,1.66 v 0 q 0,0.74 0.45,1.21 0.45,0.47 1.14,0.74 0.69,0.28 1.88,0.6 v 0 q 1.59,0.44 2.59,0.88 1,0.43 1.7,1.34 0.71,0.91 0.71,2.43 v 0 q 0,1.22 -0.66,2.3 -0.66,1.08 -1.91,1.74 -1.25,0.65 -2.96,0.65 z m 30.39,-0.16 h -3.43 l -1.98,-1.98 q -1.15,1.15 -2.5,1.72 -1.36,0.56 -3.04,0.56 v 0 q -1.7,0 -3.01,-0.6 -1.31,-0.6 -2.03,-1.71 -0.71,-1.12 -0.71,-2.59 v 0 q 0,-1.66 0.94,-2.96 0.95,-1.3 2.81,-2.05 v 0 q -0.67,-0.81 -0.94,-1.51 -0.28,-0.7 -0.28,-1.55 v 0 q 0,-1.06 0.54,-1.89 0.54,-0.83 1.55,-1.31 1.01,-0.48 2.35,-0.48 v 0 q 1.36,0 2.31,0.51 0.95,0.52 1.43,1.42 0.47,0.9 0.38,2 v 0 h -2.63 q 0.03,-0.85 -0.41,-1.32 -0.44,-0.47 -1.2,-0.47 v 0 q -0.76,0 -1.23,0.44 -0.47,0.45 -0.47,1.1 v 0 q 0,0.62 0.36,1.23 0.35,0.61 1.25,1.57 v 0 l 4.23,4.21 1.64,-2.69 h 2.83 l -2.07,3.54 -0.58,0.95 z m -10.95,-1.93 q 2.16,0 3.82,-1.77 v 0 l -4.23,-4.26 q -2.72,1.08 -2.72,3.27 v 0 q 0,1.17 0.88,1.96 0.87,0.8 2.25,0.8 z M 241.91,8.16 q 2.56,0 4.48,0.98 1.92,0.98 2.96,2.81 1.05,1.83 1.05,4.26 v 0 q 0,2.44 -1.05,4.24 -1.04,1.79 -2.96,2.75 -1.92,0.95 -4.48,0.95 v 0 h -5.22 V 8.16 Z m 0,13.85 q 2.81,0 4.3,-1.52 1.5,-1.52 1.5,-4.28 v 0 q 0,-2.78 -1.5,-4.34 -1.49,-1.57 -4.3,-1.57 v 0 h -2.6 v 11.71 z m 19.92,-11.73 h -6.21 v 4.69 h 5.52 v 2.14 h -5.52 v 4.9 h 6.21 v 2.14 H 253 V 8.14 h 8.83 z m 8.49,14.03 q -1.61,0 -2.9,-0.56 -1.29,-0.57 -2.02,-1.6 -0.74,-1.04 -0.74,-2.42 v 0 h 2.81 q 0.09,1.04 0.81,1.71 0.73,0.66 2.04,0.66 v 0 q 1.36,0 2.12,-0.65 0.75,-0.66 0.75,-1.69 v 0 q 0,-0.81 -0.47,-1.31 -0.47,-0.51 -1.17,-0.79 -0.7,-0.27 -1.94,-0.59 v 0 q -1.57,-0.42 -2.55,-0.84 -0.97,-0.43 -1.66,-1.33 -0.69,-0.89 -0.69,-2.39 v 0 q 0,-1.38 0.69,-2.41 0.69,-1.04 1.93,-1.59 1.24,-0.55 2.87,-0.55 v 0 q 2.33,0 3.81,1.16 1.48,1.16 1.64,3.18 v 0 h -2.89 q -0.07,-0.87 -0.83,-1.49 -0.76,-0.62 -2,-0.62 v 0 q -1.13,0 -1.84,0.57 -0.71,0.58 -0.71,1.66 v 0 q 0,0.74 0.44,1.21 0.45,0.47 1.14,0.74 0.69,0.28 1.89,0.6 v 0 q 1.59,0.44 2.59,0.88 1,0.43 1.7,1.34 0.7,0.91 0.7,2.43 v 0 q 0,1.22 -0.66,2.3 -0.65,1.08 -1.91,1.74 -1.25,0.65 -2.95,0.65 z m 8.62,-16.15 h 2.63 v 15.99 h -2.63 z m 20.8,4.6 h -3.16 q -0.62,-1.19 -1.72,-1.8 -1.1,-0.61 -2.55,-0.61 v 0 q -1.59,0 -2.83,0.71 -1.24,0.72 -1.95,2.03 -0.7,1.31 -0.7,3.03 v 0 q 0,1.73 0.7,3.05 0.71,1.32 1.95,2.04 1.24,0.71 2.83,0.71 v 0 q 2.14,0 3.47,-1.2 1.33,-1.19 1.63,-3.24 v 0 h -6 v -2.09 h 8.81 v 2.04 q -0.25,1.87 -1.32,3.43 -1.07,1.56 -2.79,2.5 -1.71,0.93 -3.8,0.93 v 0 q -2.26,0 -4.12,-1.05 -1.86,-1.04 -2.96,-2.91 -1.09,-1.86 -1.09,-4.21 v 0 q 0,-2.34 1.09,-4.21 1.1,-1.86 2.97,-2.91 1.88,-1.04 4.11,-1.04 v 0 q 2.55,0 4.54,1.25 1.99,1.25 2.89,3.55 z m 16.19,-4.62 v 16.01 h -2.62 L 305.42,12.21 V 24.15 H 302.8 V 8.14 h 2.62 l 7.89,11.92 V 8.14 Z" />
      </g>
    </svg>
    <svg
       id="svg43"
       version="1.1"
       style="overflow:visible"
       width="46.360001"
       height="26.52"
       x="223.55002"
       viewBox="2.6199999 13.38 46.360001 26.52"
       y="262.13004">
      <g
         id="g41"
         style="fill:#8dc63f;fill-opacity:1">
        <path
           id="path39"
           d="M 22.46,39.9 H 16.3 L 10.45,29.56 H 7.94 V 39.9 H 2.62 V 13.38 h 9.96 q 3.08,0 5.24,1.08 2.17,1.08 3.25,2.92 1.08,1.85 1.08,4.13 v 0 q 0,2.62 -1.52,4.73 -1.52,2.11 -4.52,2.91 v 0 z M 7.94,17.78 v 7.79 h 4.45 q 2.16,0 3.23,-1.04 1.06,-1.05 1.06,-2.91 v 0 q 0,-1.82 -1.06,-2.83 -1.07,-1.01 -3.23,-1.01 v 0 z m 35.72,-4.4 h 5.32 V 39.9 H 43.66 V 28.61 H 32.3 V 39.9 H 26.98 V 13.38 h 5.32 v 10.9 h 11.36 z" />
      </g>
    </svg>
  </g>
</svg>
