<svg xmlns="http://www.w3.org/2000/svg" viewBox="0 0 315.08 47.15" xmlns:v="https://vecta.io/nano"><g transform="translate(-223.5 -262.13)"><svg width="315.08" height="16.65" x="223.5" viewBox="0.85 7.8 315.08 16.65" y="292.63" overflow="visible"><path d="M16.45 12.76h-3.16q-.62-1.19-1.72-1.8-1.11-.61-2.55-.61h0q-1.59 0-2.83.71-1.24.72-1.95 2.03-.7 1.31-.7 3.03h0q0 1.73.7 3.05.71 1.32 1.95 2.04 1.24.71 2.83.71h0q2.13 0 3.47-1.2 1.33-1.19 1.63-3.24h0-6v-2.09h8.81v2.04q-.25 1.87-1.32 3.43-1.07 1.56-2.79 2.5-1.71.93-3.8.93h0q-2.26 0-4.12-1.05-1.86-1.04-2.96-2.91Q.85 18.47.85 16.12h0q0-2.34 1.09-4.21Q3.04 10.05 4.91 9q1.88-1.04 4.11-1.04h0q2.55 0 4.54 1.25 1.99 1.25 2.89 3.55zm13.84 11.39l-1.15-3.27h-6.69l-1.15 3.27h-2.74l5.73-16.01h3.03l5.73 16.01zm-7.11-5.41h5.23l-2.6-7.42zm23.79 5.41h-3.13l-3.68-6.39h-2v6.39h-2.62V8.16h5.51q1.85 0 3.12.65 1.28.64 1.91 1.72.63 1.08.63 2.42h0q0 1.56-.91 2.84-.9 1.28-2.79 1.74h0zM38.16 10.3v5.36h2.89q1.48 0 2.22-.73.75-.74.75-1.98h0q0-1.24-.73-1.94-.74-.71-2.24-.71h0zm17.13-2.14q2.56 0 4.48.98 1.92.98 2.96 2.81 1.05 1.83 1.05 4.26h0q0 2.44-1.05 4.24-1.04 1.79-2.96 2.75-1.92.95-4.48.95h0-5.22V8.16zm0 13.85q2.81 0 4.3-1.52 1.5-1.52 1.5-4.28h0q0-2.78-1.5-4.34-1.49-1.57-4.3-1.57h0-2.6v11.71zm19.92-11.73H69v4.69h5.52v2.14H69v4.9h6.21v2.14h-8.83V8.14h8.83zm16.35-2.14v16.01h-2.62l-7.89-11.94v11.94h-2.62V8.14h2.62l7.89 11.92V8.14zm14.7 16.17q-1.61 0-2.9-.56-1.29-.57-2.02-1.6-.74-1.04-.74-2.42h0 2.81q.09 1.04.81 1.71.73.66 2.04.66h0q1.36 0 2.12-.65.76-.66.76-1.69h0q0-.81-.48-1.31-.47-.51-1.17-.79-.7-.27-1.94-.59h0q-1.57-.42-2.54-.84-.98-.43-1.67-1.33-.69-.89-.69-2.39h0q0-1.38.69-2.41.69-1.04 1.93-1.59 1.24-.55 2.88-.55h0q2.32 0 3.8 1.16 1.49 1.16 1.65 3.18h0-2.9q-.07-.87-.83-1.49-.76-.62-2-.62h0q-1.13 0-1.84.57-.71.58-.71 1.66h0q0 .74.44 1.21.45.47 1.14.74.69.28 1.89.6h0q1.59.44 2.59.88 1 .43 1.7 1.34.7.91.7 2.43h0q0 1.22-.66 2.3-.65 1.08-1.9 1.74-1.26.65-2.96.65zm17.46-14.03h-6.21v4.69h5.52v2.14h-5.52v4.9h6.21v2.14h-8.83V8.14h8.83zm14.65 13.87h-3.13l-3.68-6.39h-2v6.39h-2.62V8.16h5.52q1.84 0 3.11.65 1.28.64 1.91 1.72.64 1.08.64 2.42h0q0 1.56-.91 2.84-.91 1.28-2.8 1.74h0zm-8.81-13.85v5.36h2.9q1.47 0 2.22-.73.74-.74.74-1.98h0q0-1.24-.73-1.94-.74-.71-2.23-.71h0zm22.93-2.14h2.76l-6 15.99h-3.04l-6.02-15.99h2.8l4.74 13.3zm4.95 0h2.62v15.99h-2.62zm5.19 7.96q0-2.34 1.1-4.21 1.09-1.86 2.96-2.91 1.88-1.04 4.11-1.04h0q2.55 0 4.54 1.25 1.99 1.25 2.89 3.55h0-3.15q-.62-1.26-1.73-1.88-1.1-.62-2.55-.62h0q-1.59 0-2.83.71-1.24.71-1.94 2.05-.71 1.33-.71 3.1h0q0 1.77.71 3.11.7 1.33 1.94 2.06 1.24.72 2.83.72h0q1.45 0 2.55-.62 1.11-.62 1.73-1.89h0 3.15q-.9 2.3-2.89 3.55-1.99 1.24-4.54 1.24h0q-2.26 0-4.12-1.05-1.86-1.04-2.95-2.91-1.1-1.86-1.1-4.21zm27.49-5.84h-6.21v4.69h5.52v2.14h-5.52v4.9h6.21v2.14h-8.83V8.14h8.83zm8.48 14.03q-1.6 0-2.89-.56-1.29-.57-2.03-1.6-.73-1.04-.73-2.42h0 2.8q.09 1.04.82 1.71.72.66 2.03.66h0q1.36 0 2.12-.65.76-.66.76-1.69h0q0-.81-.47-1.31-.47-.51-1.17-.79-.71-.27-1.95-.59h0q-1.56-.42-2.54-.84-.98-.43-1.67-1.33-.69-.89-.69-2.39h0q0-1.38.69-2.41.69-1.04 1.94-1.59 1.24-.55 2.87-.55h0q2.32 0 3.81 1.16 1.48 1.16 1.64 3.18h0-2.9q-.07-.87-.82-1.49-.76-.62-2.01-.62h0q-1.12 0-1.84.57-.71.58-.71 1.66h0q0 .74.45 1.21.45.47 1.14.74.69.28 1.88.6h0q1.59.44 2.59.88 1 .43 1.7 1.34.71.91.71 2.43h0q0 1.22-.66 2.3-.66 1.08-1.91 1.74-1.25.65-2.96.65zm30.39-.16h-3.43l-1.98-1.98q-1.15 1.15-2.5 1.72-1.36.56-3.04.56h0q-1.7 0-3.01-.6-1.31-.6-2.03-1.71-.71-1.12-.71-2.59h0q0-1.66.94-2.96.95-1.3 2.81-2.05h0q-.67-.81-.94-1.51-.28-.7-.28-1.55h0q0-1.06.54-1.89.54-.83 1.55-1.31 1.01-.48 2.35-.48h0q1.36 0 2.31.51.95.52 1.43 1.42.47.9.38 2h0-2.63q.03-.85-.41-1.32-.44-.47-1.2-.47h0q-.76 0-1.23.44-.47.45-.47 1.1h0q0 .62.36 1.23.35.61 1.25 1.57h0l4.23 4.21 1.64-2.69h2.83l-2.07 3.54-.58.95zm-10.95-1.93q2.16 0 3.82-1.77h0l-4.23-4.26q-2.72 1.08-2.72 3.27h0q0 1.17.88 1.96.87.8 2.25.8zm23.87-14.06q2.56 0 4.48.98 1.92.98 2.96 2.81 1.05 1.83 1.05 4.26h0q0 2.44-1.05 4.24-1.04 1.79-2.96 2.75-1.92.95-4.48.95h0-5.22V8.16zm0 13.85q2.81 0 4.3-1.52 1.5-1.52 1.5-4.28h0q0-2.78-1.5-4.34-1.49-1.57-4.3-1.57h0-2.6v11.71zm19.92-11.73h-6.21v4.69h5.52v2.14h-5.52v4.9h6.21v2.14H253V8.14h8.83zm8.49 14.03q-1.61 0-2.9-.56-1.29-.57-2.02-1.6-.74-1.04-.74-2.42h0 2.81q.09 1.04.81 1.71.73.66 2.04.66h0q1.36 0 2.12-.65.75-.66.75-1.69h0q0-.81-.47-1.31-.47-.51-1.17-.79-.7-.27-1.94-.59h0q-1.57-.42-2.55-.84-.97-.43-1.66-1.33-.69-.89-.69-2.39h0q0-1.38.69-2.41.69-1.04 1.93-1.59 1.24-.55 2.87-.55h0q2.33 0 3.81 1.16 1.48 1.16 1.64 3.18h0-2.89q-.07-.87-.83-1.49-.76-.62-2-.62h0q-1.13 0-1.84.57-.71.58-.71 1.66h0q0 .74.44 1.21.45.47 1.14.74.69.28 1.89.6h0q1.59.44 2.59.88 1 .43 1.7 1.34.7.91.7 2.43h0q0 1.22-.66 2.3-.65 1.08-1.91 1.74-1.25.65-2.95.65zm8.62-16.15h2.63v15.99h-2.63zm20.8 4.6h-3.16q-.62-1.19-1.72-1.8-1.1-.61-2.55-.61h0q-1.59 0-2.83.71-1.24.72-1.95 2.03-.7 1.31-.7 3.03h0q0 1.73.7 3.05.71 1.32 1.95 2.04 1.24.71 2.83.71h0q2.14 0 3.47-1.2 1.33-1.19 1.63-3.24h0-6v-2.09h8.81v2.04q-.25 1.87-1.32 3.43-1.07 1.56-2.79 2.5-1.71.93-3.8.93h0q-2.26 0-4.12-1.05-1.86-1.04-2.96-2.91-1.09-1.86-1.09-4.21h0q0-2.34 1.09-4.21 1.1-1.86 2.97-2.91 1.88-1.04 4.11-1.04h0q2.55 0 4.54 1.25 1.99 1.25 2.89 3.55zm16.19-4.62v16.01h-2.62l-7.89-11.94v11.94h-2.62V8.14h2.62l7.89 11.92V8.14z" fill="#fff"/></svg><svg width="46.36" height="26.52" x="223.55" viewBox="2.62 13.38 46.36 26.52" y="262.13" overflow="visible"><path d="M22.46 39.9H16.3l-5.85-10.34H7.94V39.9H2.62V13.38h9.96q3.08 0 5.24 1.08 2.17 1.08 3.25 2.92 1.08 1.85 1.08 4.13h0q0 2.62-1.52 4.73-1.52 2.11-4.52 2.91h0zM7.94 17.78v7.79h4.45q2.16 0 3.23-1.04 1.06-1.05 1.06-2.91h0q0-1.82-1.06-2.83-1.07-1.01-3.23-1.01h0zm35.72-4.4h5.32V39.9h-5.32V28.61H32.3V39.9h-5.32V13.38h5.32v10.9h11.36z" fill="#8dc63f"/></svg></g></svg>
