<svg xmlns="http://www.w3.org/2000/svg" version="1.0" viewBox="0 0 4999.893 2570.867"><path d="M1012.692 612v612h213V971.7c0-155.6.4-258.5 1-268.6 1.6-26.5 5.9-43 17.2-65.5 21.2-42.8 57.1-74.8 99.9-89 20.2-6.8 28.6-8 54.9-8 25.3-.1 32.7.8 50.5 5.9 22.7 6.6 40.2 17 57.1 33.9 31.6 31.7 48.9 78.3 53.4 143.4.6 10 1 99.7 1 257.8V1224h212.1l-.4-268.8c-.3-241.9-.5-270.2-2-284.1-7-65.6-19.2-110.8-42-155.6-22.4-44-52.9-78.9-91.6-104.6-35.2-23.4-76.7-38.1-122.1-43.3-17.6-2.1-52.4-2.1-69.4-.1-48 5.6-90.9 21.6-134.1 49.9-27.9 18.3-54.9 44.6-75.1 73-11.7 16.4-10.4 46.1-10.4-240.4V0h-213zm2475-405.8c0 113.4.4 205.8.8 205.3.5-.6 10.7-13.2 22.8-28 63-77.7 131.3-157.8 172-201.7l16.4-17.6V0h-212zM578.193 44.1c-109.2 6.3-208.9 34.3-293.5 82.4-17 9.7-50.1 31.7-64.5 43-37.2 29-69.1 60.9-98 98-10.8 13.8-31.1 44.1-40.5 60.5-15.7 27.2-33.2 65.6-44.4 97.3-29.6 83.7-42.3 185.6-35.5 285.2 13 190.4 94.2 342.3 231.9 434 87.5 58.2 189.6 90.1 312.7 97.5 22 1.3 74.3 1.3 98.8 0 78.6-4.3 149.8-16.3 205.5-34.9 16.9-5.7 36.8-13.8 40.6-16.5 1.7-1.3.9-5.5-15.1-83.5-9.3-45.2-17.2-82.6-17.5-83.2-.4-.6-2.9 0-6.1 1.4-71.6 31.6-193 47.4-284.9 37.2-43.8-4.9-88.7-16.4-123.9-31.7-46-20-88.4-49.9-119.2-84.1-60.6-67.3-93.7-153.1-101-262.2-2.3-34.1-.3-87.3 4.6-123.5 12.8-93.3 50.8-174.3 109-232.5 51.1-51.2 116.8-85 195-100.4 97.4-19.2 218.9-7.5 310.9 29.9 6.8 2.8 12.7 5 13.2 5 .6 0 10.6-35 22.4-77.8 11.7-42.7 22.1-80.6 23.1-84l1.8-6.4-10.2-4.8c-38.6-18.1-103.6-34-170.2-41.5-39.8-4.4-108.6-6.5-145-4.4z"/><path d="M3914.693 128c-48.6 2.5-86 11-117 26.5-40.2 20.2-95.7 72.6-176.1 166.5-64.1 74.9-149.6 180.7-242.9 300.5-53 68.2-83.4 104.9-103 124.6-13.8 13.9-17.5 16.1-21.5 13.5-9.4-6.2-16.7-26.7-26.6-74.6-12-58.1-18-74.6-29.5-82-6.1-3.8-12.2-5-26.3-5-20.6 0-37.2 4.1-58.9 14.5-35.2 16.9-56.4 39-61.8 64.6-2.8 12.9-1.2 35.8 7.2 100.4 13.9 108.6 24.4 151 45.1 182.3 16.5 24.9 37.9 37.3 73.7 42.7 39.4 5.8 72.6-6.1 102.2-36.7 11.4-11.7 17.4-19.9 33.9-45.6 25.6-40 95.3-132.7 164.4-218.7 86.7-108 176.7-210.6 279.8-319.2 51.4-54.1 160.5-161.6 220.5-217.4 19.6-18.2 23.7-23.3 22.4-28.3-.8-3.3-5.5-6.2-12.1-7.5-7-1.4-54.8-2.1-73.5-1.1zm-1672.5 238.6c-19.8 2-34.1 3.9-45.5 6-97.7 17.7-178.3 67.5-237.6 146.8-71.4 95.3-104.1 229.4-88.8 363.6 8.5 74.2 34.1 144.8 71.7 197.5 18.5 25.9 44.5 53.5 67.9 72.3 66.4 53 149.3 82.4 251.3 89.3 21.7 1.5 83.4.6 108.5-1.5 78.2-6.7 150.1-22.6 214.8-47.6 6.5-2.5 8.2-3.5 7.8-4.8-.5-1.6-30.6-144-30.6-144.6 0-.2-4.8 1.4-10.7 3.5-66.6 23.8-144.1 35.2-227.8 33.6-33.5-.7-50.3-2.5-75.5-8.3-73.9-17-127.4-56.3-155.5-113.9-12.1-24.9-19.9-56.2-21.8-87.3l-.4-7.2h562.4l1.1-7.8c4.6-29.9 6.7-88.7 4.3-121.4-7.6-103.7-40.2-192.3-94.3-256.5-45.2-53.6-107.6-89.8-179.8-104.3-29.7-6-42.2-7.2-81.5-7.5-19.8-.1-37.8-.1-40 .1zm38.5 144.4c53.6 4.1 93.7 26.7 122.1 68.9 22.2 32.9 35.9 80.1 35.9 123.8V716h-183.8c-101.1 0-184.1-.2-184.4-.5-.7-.7 1.8-18.2 4.3-30 10.9-51.1 34.3-95.6 66.6-126.6 29.9-28.7 65.2-44.4 107.4-47.8 14-1.2 17.1-1.2 31.9-.1z"/><path d="M3129.193 367.1c-151.5 12.1-270.9 76.3-345.4 185.9-59.2 87-85.3 202.3-72.5 320.5 8.7 80.9 35.8 153.5 78.7 210.7 70.4 94.1 177.6 148.3 311.9 157.8 18.5 1.3 61.6 1.3 81.3 0 44.9-3 89.3-10 129.4-20.6 26.6-6.9 66.1-21.2 66.1-23.8-.1-2.1-28.8-154.7-29.2-155.2-.3-.2-7.7 2.3-16.5 5.6-48.2 17.9-94.4 26-148.3 26-22.6 0-35.3-1-53-4.1-69.3-12.1-125.1-47.6-161.6-102.9-21.9-33.1-35.5-71.3-41.9-117-2.3-15.8-3.1-62.7-1.5-80.2 7.8-85.9 46.7-155.9 110-197.8 31.6-20.8 67.8-33.7 110.5-39.2 15.2-1.9 63.3-1.6 82 .6 39.4 4.6 74.3 13.5 104.7 26.6 8.7 3.8 8.8 3.8 9.3 1.7 13.4-54.7 37.2-156.4 36.7-156.8-.4-.4-7-3.2-14.7-6.2-36.3-14.3-80.3-24.4-132.5-30.3-16.8-1.9-85.4-2.8-103.5-1.3zm1463.5-.1c-75.6 5.7-144.5 21.5-204.5 47-10.2 4.3-45.6 22-48.7 24.4-1.7 1.2-.3 6.1 18.7 69.6 11.3 37.6 20.7 68.5 20.9 68.8.3.2 5.6-2.5 11.8-6.1 43.4-25.3 101-43.8 160.8-51.8 19.8-2.6 66-3.7 83.6-2 54.5 5.5 94.2 25.9 117.1 60.3 15.1 22.7 22 46.8 23 80.9l.6 17.6-31.9.6c-17.6.4-39.3 1.1-48.4 1.7-157 10.1-271.6 50.5-341.5 120.5-44.9 44.9-69.4 98.6-75.6 165.8-1.5 16.3-.6 53.6 1.5 67.2 7.2 44.3 25.5 86.3 52.1 119 9.8 12.1 29.9 31.5 41.5 40.2 35 26.2 74.8 42.4 122 49.4 13.6 2.1 19.2 2.4 46 2.4 32.7 0 44.5-1 69.7-6.1 69.1-13.9 130.2-48.5 171.4-97 5.2-6.1 7.8-8.4 9.5-8.4 2.8 0 1.7-5.2 9.4 47.5 3.3 22.5 6.3 42 6.5 43.2l.5 2.3h191.2l-.6-3.3c-2.9-15.9-6.9-57.8-8.6-89.2-.5-11-1.3-23.2-1.6-27-.3-3.9-.9-101.5-1.3-217-.8-226.8-.6-217.5-6.2-253-23.8-150.9-111.3-240-258.4-262.9-26.3-4.2-36.7-4.8-78-5.1-22.5-.2-46.2.1-52.5.5zm187.7 516.2c-.3 66.3-.4 69.7-2.5 78.3-7.4 31.7-20.5 55-44.1 78.6-27.8 27.7-58.5 43.2-98.1 49.4-13.7 2.2-39.3 2.2-52 .1-59-9.7-92.9-49-95.7-111.1-4.2-93.8 66.9-149.3 207.2-162 22.9-2 24.8-2.1 57.3-2.3l28.3-.2zm-836.8-458.5c-16.8 22.5-66.8 88.9-111 147.8-80.3 106.9-92.3 123.4-116.7 161-7.1 11-13.7 20.1-14.6 20.3-1.5.3-1.6-9-1.8-112.9l-.3-113.2-23.1 24.9c-52.4 56.5-111.3 124-169.7 194.6l-18.7 22.6V1224h212V938.1l36-42c19.8-23.2 36.1-42.1 36.3-42.1.2 0 54.5 83.2 120.8 185l120.4 185h260.6l-1.9-2.8c-1.1-1.5-81-113.2-177.6-248.2l-175.6-245.4 2.9-3.1c9.9-10.5 307.1-339.6 307.1-340 0-.3-57.3-.5-127.3-.5h-127.2zm-692.9 1141.3c0 226-.1 238-1.7 238-1.1 0-3.5-2.6-5.9-6.3-15.1-22.9-40.8-46.8-67.8-62.8-34.8-20.7-73.3-33-122.6-39.1-16.2-2-69-1.7-85.5.5-71.1 9.5-132.4 36.8-186 82.6-38.2 32.7-69.4 73.3-93.8 122.1-26.9 53.6-41.8 107.1-49.3 177-2.1 19.6-3 79.4-1.5 101.5 7.3 107.9 40.2 197.7 98.5 268.5 9.2 11.2 30.8 33.2 42.1 42.9 20.5 17.6 42 32.1 65.3 43.9 36.8 18.8 71.2 29.1 114.7 34.4 13.4 1.6 60.9 1.6 75 0 57.9-6.8 104.3-23.5 148.6-53.2 32.2-21.7 66.3-58.5 83.9-90.7 2.1-3.8 4.1-6.3 5.1-6.3 2.1 0 1.9-1.4 6.4 70.5 2 31.9 3.8 59 4.1 60.3l.4 2.2h189.1l-.5-6.8c-1.6-18.3-4.2-86.4-5.6-143.2-.6-24.1-1-249.1-1-557.3V1328h-212zm-168.9 292.1c86.5 8.7 152.5 73.7 166.6 163.9 1.6 10.5 1.8 20 1.8 105 0 103.1.2 98.3-6.5 125-10.2 40.5-27.2 70.5-54.9 97.2-44.7 43.1-106.8 60.3-170.9 47.3-91.1-18.6-150.2-95.1-164.9-213.5-2.5-20.4-2.5-76.1 0-97 8-66 27.2-116.8 59.6-157.9 8.6-11 26.7-28.1 38.2-36.3 10.8-7.8 28.5-17.2 41.7-22.3 11.5-4.4 30-9 42.3-10.4 5.2-.6 10.8-1.3 12.4-1.5 6.8-.7 25-.5 34.6.5zm-2188.8-330.7-103.3 30.1V1713h-120v158h119.9l.4 215.7c.4 219.8.4 222.3 4.3 256.8 11.3 101.4 48.6 163.9 118.9 199.5 35.1 17.8 71.9 26.4 118 27.7 52.3 1.4 113-6.2 151.4-18.8l9.3-3.1-.6-14.2c-.3-7.7-1.1-41.3-1.6-74.6-.6-33.3-1.3-63.2-1.6-66.6l-.5-6.1-11.6 2.8c-19.6 4.8-30.1 6-57.3 6.6-20.9.5-27.4.3-36-1.1-53.2-8.4-79.1-45.5-85-122-.6-8-1-86.9-1-207.7V1871h202v-158h-202l-.2-107.9-.3-107.8zm811.7 168.1c-47.7 6.9-88.8 26.4-126.2 59.9-29.9 26.6-56.8 66.3-71.8 105.8l-4.5 11.8h-7.5l-.1-6.8c0-3.7-1.5-39.6-3.2-79.7l-3.2-73-92-.3-92-.2 1.1 19.2c4.9 81.4 5.4 125.8 5.4 485.5V2552h212l.3-230.8c.3-249.2 0-230.6 5.2-261.6 10.4-60.7 42.1-111.5 87-139.4 31.4-19.4 63.9-28.2 104.5-28.2 19.7 0 29.5.8 48.2 4 6.4 1.1 12.1 2 12.7 2 .8 0 1.1-28.4 1.1-99.4 0-93.9-.1-99.5-1.7-100-12.7-3.9-57.3-5.7-75.3-3.1zm416-.4c-93.1 6.1-181.7 30-247.7 66.7-7.4 4-10.2 6.1-9.8 7.2.2.8 9.5 31.6 20.6 68.5 11 36.8 20.2 67.1 20.3 67.3.2.1 3.9-1.8 8.2-4.4 11-6.6 39.7-20.4 53.4-25.7 74-28.8 161.7-38.8 222.9-25.6 34.5 7.5 64 24.2 81.7 46.3 19.9 24.9 29 52.1 30.1 90.3l.6 18.3h-14.4c-20.1 0-60.8 1.7-83.4 3.5-147.2 11.7-255.9 51.5-323.5 118.5-43.7 43.3-68.7 96.9-75.6 162-2 19.1-1.5 54.9 1.1 71 6.7 42.4 22 79.3 47.2 113.3 9.6 12.9 33.7 37 46.8 46.8 44.1 32.8 95.9 49.8 157.5 51.6 86.1 2.5 164.9-24.6 225.5-77.7 9.2-8.1 24.4-23.9 29.5-30.8 1.7-2.2 3.2-3.2 5.1-3.2 3.3 0 2.3-4.8 9.9 47 3.3 22.8 6.3 42.5 6.5 43.7l.5 2.3h95.6c90.5 0 95.5-.1 95-1.8-2-6.5-6.8-54-8.6-84.2-.6-10.2-1.3-20.8-1.6-23.5-.3-2.8-.9-101.1-1.3-218.5-.7-188.4-1-215.4-2.5-229.5-6-57.6-17.4-100.6-37.2-140.4-14.9-30-29-49.7-51.4-72.1-27-27.1-55.4-45.6-92.9-60.7-34.7-13.9-76.9-22.9-123.6-26.3-16.2-1.1-66.2-1.1-84.5.1zm179.8 446.6 5.3.6-.4 69.1c-.3 65.5-.4 69.6-2.4 78.1-12.9 56.1-55 101.8-111.3 120.6-57.5 19.2-117.7 9.1-149.4-25.2-19.7-21.2-29.6-49.8-29.6-85.4 0-30.1 6.9-53.9 22.2-76.2 29.4-43.2 95-71 187-79.3 23.6-2.2 69-3.5 78.6-2.3zm1661.7-446.7c-84 7.3-154 34.5-214.9 83.4-20.6 16.6-47.6 44.8-65.3 68.1-51.4 68.1-83.2 157-91.4 256-1.6 18.9-1.6 68.6 0 87 7.4 85.5 29.9 153.9 70.2 213.5 60.3 89.1 156.7 145.3 278.4 162.5 22.1 3.1 42.6 4.6 71 5.2 101.8 2.1 207.8-15.7 296.2-49.7 7.4-2.8 8.2-3.4 7.8-5.3-.3-1.2-7.2-33.8-15.4-72.5s-15.1-70.5-15.4-70.8c-.2-.2-9.8 2.7-21.3 6.5-44.6 14.8-89.5 23.6-144.9 28.3-9.2.8-31.7 1.3-58 1.3-46.2 0-51.7-.4-80.6-6-80.8-15.8-140.7-60.2-168.3-124.9-10.3-24.1-15.2-45.7-18-79.9l-.5-5.7h562.5l1.2-7.4c3.9-25.4 4.7-37.9 4.7-81.1 0-44-.6-53.5-5.1-84.5-9.1-63.1-30.9-125.5-60.4-172.8-9-14.4-26-36.8-37.2-48.8-53.3-57.8-119.7-90.2-206.8-100.9-15.6-2-72.2-2.9-88.5-1.5zm44 144c40.1 3.8 72.5 18.1 98.1 43.5 11.9 11.8 19.3 21.4 27.8 36.3 17.3 30.4 27.5 68.8 29.3 110.5l.6 14.7-184.9-.2-184.9-.3.3-3.5c2.7-32 17.2-76.5 34.8-106.8 39.2-67.5 103.4-101.3 178.9-94.2z"/></svg>
